<svg width="189.71" height="118.13000000000001" xmlns="http://www.w3.org/2000/svg" data-name="Warstwa 1">

 <g>
  <title>Layer 1</title>
  <path id="svg_1" fill="#bf793b" d="m7.43,117.05a8.06,8.06 0 0 1 -3.14,-0.59a7.2,7.2 0 0 1 -2.38,-1.61a7,7 0 0 1 -1.52,-2.42a8.25,8.25 0 0 1 -0.54,-3l0,-1.61l4.43,0l0,1.75a3.75,3.75 0 0 0 0.18,1.16a3.21,3.21 0 0 0 0.57,1a2.72,2.72 0 0 0 1,0.73a3.48,3.48 0 0 0 1.41,0.26a3.58,3.58 0 0 0 1.45,-0.26a2.72,2.72 0 0 0 1,-0.73a3.21,3.21 0 0 0 0.57,-1a3.75,3.75 0 0 0 0.18,-1.16l0,-16.26l4.43,0l0,16.11a8.25,8.25 0 0 1 -0.54,3a7,7 0 0 1 -1.53,2.43a7.09,7.09 0 0 1 -2.4,1.61a8.16,8.16 0 0 1 -3.17,0.59z" class="cls-1"/>
  <path id="svg_2" fill="#bf793b" d="m22.8,111.94l-1.57,4.67l-4.7,0l8.12,-23.3l5.6,0l8.12,23.3l-4.69,0l-1.58,-4.67l-9.3,0zm4.63,-13.7l-3.25,9.57l6.51,0l-3.26,-9.57z" class="cls-1"/>
  <path id="svg_3" fill="#bf793b" d="m60.46,110.6a10.63,10.63 0 0 1 -3.91,4.7a10.92,10.92 0 0 1 -6.13,1.7a10.49,10.49 0 0 1 -4.44,-0.94a11,11 0 0 1 -3.58,-2.58a12.34,12.34 0 0 1 -2.4,-3.85a13.51,13.51 0 0 1 0,-9.54a12.11,12.11 0 0 1 2.38,-3.86a11,11 0 0 1 3.62,-2.59a10.65,10.65 0 0 1 4.44,-0.94a11.18,11.18 0 0 1 6.19,1.7a10.11,10.11 0 0 1 3.91,4.72l-4.43,1.1a6.79,6.79 0 0 0 -2.26,-2.48a6,6 0 0 0 -3.41,-1a5.82,5.82 0 0 0 -2.68,0.64a7,7 0 0 0 -2.17,1.75a8.78,8.78 0 0 0 -1.46,2.58a9.57,9.57 0 0 0 0,6.28a8.71,8.71 0 0 0 1.46,2.59a7,7 0 0 0 2.17,1.75a5.81,5.81 0 0 0 2.68,0.63a5.9,5.9 0 0 0 3.37,-1a6.82,6.82 0 0 0 2.27,-2.48l4.38,1.12z" class="cls-1"/>
  <path id="svg_4" fill="#bf793b" d="m67.71,108.65l0,8l-4.44,0l0,-23.34l4.44,0l0,9.4l8.75,-9.4l6.11,0l-9.46,9.69l9.89,13.61l-5.8,0l-7.2,-10.34l-2.29,2.38z" class="cls-1"/>
  <path id="svg_5" fill="#bf793b" d="m94.7,92.74a10.89,10.89 0 0 1 4.54,0.94a10.75,10.75 0 0 1 3.61,2.58a12.29,12.29 0 0 1 2.36,3.86a13.72,13.72 0 0 1 0,9.51a12.29,12.29 0 0 1 -2.36,3.86a11.32,11.32 0 0 1 -12.72,2.58a10.75,10.75 0 0 1 -3.6,-2.58a12.13,12.13 0 0 1 -2.37,-3.86a13.72,13.72 0 0 1 0,-9.51a12.13,12.13 0 0 1 2.37,-3.86a10.61,10.61 0 0 1 3.6,-2.58a11,11 0 0 1 4.57,-0.94zm0,20.08a6,6 0 0 0 2.71,-0.63a6.75,6.75 0 0 0 2.2,-1.71a8.29,8.29 0 0 0 1.49,-2.48a9,9 0 0 0 0.53,-3.09a8.87,8.87 0 0 0 -0.53,-3.06a8.17,8.17 0 0 0 -1.49,-2.53a6.92,6.92 0 0 0 -2.2,-1.72a6.09,6.09 0 0 0 -2.71,-0.62a6.2,6.2 0 0 0 -2.72,0.62a7,7 0 0 0 -2.22,1.72a8.15,8.15 0 0 0 -1.48,2.53a8.64,8.64 0 0 0 -0.54,3.06a8.77,8.77 0 0 0 0.54,3.09a8.26,8.26 0 0 0 1.48,2.53a6.82,6.82 0 0 0 2.24,1.66a6.07,6.07 0 0 0 2.7,0.63z" class="cls-1"/>
  <path id="svg_6" fill="#bf793b" d="m130,116.61l-4.9,0l-3.6,-17.56l-3.62,17.56l-4.88,0l-6.38,-23.3l4.7,0l4,17l3.49,-17l5.37,0l3.45,17l4,-17l4.66,0l-6.29,23.3z" class="cls-1"/>
  <path id="svg_7" fill="#bf793b" d="m142.41,116.61l-4.41,0l0,-23.3l4.43,0l-0.02,23.3z" class="cls-1"/>
  <path id="svg_8" fill="#bf793b" d="m150.43,111.94l-1.58,4.67l-4.7,0l8.12,-23.3l5.61,0l8.12,23.3l-4.7,0l-1.58,-4.67l-9.29,0zm4.63,-13.7l-3.26,9.57l6.51,0l-3.25,-9.57z" class="cls-1"/>
  <path id="svg_9" fill="#bf793b" d="m172.24,108.65l0,8l-4.43,0l0,-23.34l4.43,0l0,9.4l8.76,-9.4l6.11,0l-9.47,9.69l9.87,13.57l-5.77,0l-7.22,-10.34l-2.28,2.42z" class="cls-1"/>
  <polygon id="svg_10" fill="#bf793b" points="89.16 53.44 89.31 63.35 137.79 85.95 138.21 74.89 137.92 74.78 89.16 53.44" class="cls-1"/>
  <polygon id="svg_11" fill="#bf793b" points="46.64 47.64 44.97 52.57 48.32 52.57 46.64 47.64" class="cls-1"/>
  <path id="svg_12" fill="#bf793b" d="m23.56,61.79a1.37,1.37 0 0 0 -1,-0.31l-2.29,0l0,2.67l2.33,0a1.37,1.37 0 0 0 1,-0.32a1.32,1.32 0 0 0 0.34,-1a1.35,1.35 0 0 0 -0.38,-1.04z" class="cls-1"/>
  <path id="svg_13" fill="#bf793b" d="m60.18,48.49a2.68,2.68 0 0 0 -1,-0.91a3,3 0 0 0 -1.57,-0.36l-2.11,0l0,7.78l2.16,0a2.76,2.76 0 0 0 2.58,-1.4a3.51,3.51 0 0 0 0.44,-1.26a8.11,8.11 0 0 0 0.11,-1.23a7.69,7.69 0 0 0 -0.13,-1.34a3.78,3.78 0 0 0 -0.48,-1.28z" class="cls-1"/>
  <polygon id="svg_14" fill="#bf793b" points="57.48 65.56 60.04 65.56 58.76 61.79 57.48 65.56" class="cls-1"/>
  <path id="svg_15" fill="#bf793b" d="m156.56,48.92l3.61,0l0.3,-19.33l-69.87,-14l69.27,12.08l-15.76,-10.5l-103.64,-15.87l28.94,11l-38.01,-12.21l-30.12,34.1l0,39.6l71,0l1.55,-54.34l1.28,54.34l10.95,0l0,-52l68.07,10.76l0,9.4l-18,7.85l-0.38,9.69l16.33,-6.49l1.14,-4.21l-0.22,6.36l-18.85,6.66l-34.3,-15.43l34.15,13.06l0.41,-9.74l-38.72,-17.41l39.59,16.1l16.86,-7l-25.9,-11l-37.58,-6.19l0.57,26.51l50.05,22.67l11.72,-2.62l-10.79,4.24l-0.33,11l14.86,-5l0.15,-11.7l-8,-5.88l9.91,4.7l0,8.62l14.51,6.65l-0.11,-11l-17.89,-9.72l19,8l15.38,-4l-14.16,5.83l0,11.07l15.47,-6.28l0.76,-12l-33.2,-16.37zm-108,-3.82l4.18,12l-2.45,0l-0.81,-2.41l-4.79,0l-0.82,2.41l-2.42,0l4.19,-12l2.92,0zm-13.12,-29.42l9,-1.31l0,7.9l-9,1.22l0,-7.81zm-0.07,10.7l9,-1.31l0,7.93l-9,1.22l0,-7.84zm-2.67,18.72l2.3,0l0,4.49l2.33,-1.4l0,1.63l-2.33,1.4l0,3.78l6,0l0,2.1l-8.3,0l0,-4.5l-1.5,0.9l0,-1.63l1.5,-0.9l0,-5.87zm-0.62,-29.1l0,8l-7.32,1l0,-8l7.32,-1zm0,10.74l0,8.05l-7.32,0.94l0,-8l7.32,-0.99zm-10.89,18.36l2.28,0l0,4.84l4.53,-4.84l3.15,0l-4.87,5l5.08,7l-3,0l-3.72,-5.33l-1.17,1.23l0,4.1l-2.28,0l0,-12zm-4,21.24a4.09,4.09 0 0 1 -0.83,1.44a3.7,3.7 0 0 1 -1.36,0.92a4.26,4.26 0 0 1 -1.7,0.32l-3.37,0l0,-9.17l3.4,0a4.5,4.5 0 0 1 1.72,0.32a3.52,3.52 0 0 1 1.3,0.91a4.19,4.19 0 0 1 0.82,1.45a5.72,5.72 0 0 1 0.29,1.91a5.66,5.66 0 0 1 -0.29,1.9l0.02,0zm-0.34,-9.34a7.3,7.3 0 0 1 -2.06,0.26a6.91,6.91 0 0 1 -1.62,-0.2a5.09,5.09 0 0 1 -1.47,-0.64a3.94,3.94 0 0 1 -1.15,-1.08a3.41,3.41 0 0 1 -0.62,-1.55l1.27,-0.31l1,-0.25a1.73,1.73 0 0 0 0.29,0.87a2.09,2.09 0 0 0 0.62,0.6a3.17,3.17 0 0 0 0.82,0.35a3.48,3.48 0 0 0 0.9,0.12a5.31,5.31 0 0 0 1,-0.09a2.8,2.8 0 0 0 0.86,-0.28a1.82,1.82 0 0 0 0.62,-0.5a1.21,1.21 0 0 0 0.23,-0.74a1.08,1.08 0 0 0 -0.13,-0.52a1.22,1.22 0 0 0 -0.46,-0.44a4.62,4.62 0 0 0 -0.87,-0.37c-0.36,-0.11 -0.82,-0.22 -1.37,-0.33a15,15 0 0 1 -1.71,-0.35a5,5 0 0 1 -1.43,-0.64a3.31,3.31 0 0 1 -1,-1a3,3 0 0 1 -0.39,-1.6a3.06,3.06 0 0 1 0.33,-1.42a3.18,3.18 0 0 1 0.94,-1.1a4.8,4.8 0 0 1 1.44,-0.79a6.56,6.56 0 0 1 1.9,-0.26a5.74,5.74 0 0 1 1.84,0.28a4.31,4.31 0 0 1 1.37,0.78a3.65,3.65 0 0 1 0.89,1a3.5,3.5 0 0 1 0.44,1.23l-2.21,0.55a1.69,1.69 0 0 0 -0.66,-1.22a2.55,2.55 0 0 0 -1.66,-0.49a4.14,4.14 0 0 0 -0.87,0.09a2.65,2.65 0 0 0 -0.75,0.26a1.4,1.4 0 0 0 -0.52,0.43a1,1 0 0 0 -0.19,0.6a1,1 0 0 0 0.63,0.93a9.58,9.58 0 0 0 2,0.58c0.72,0.14 1.36,0.3 1.93,0.47a5.35,5.35 0 0 1 1.46,0.69a2.89,2.89 0 0 1 0.94,1a3.41,3.41 0 0 1 0.32,1.54a3.51,3.51 0 0 1 -0.34,1.57a3.26,3.26 0 0 1 -1,1.19a4.53,4.53 0 0 1 -1.56,0.78zm6.76,12l-1.9,-3.27l-1.44,0l0,3.27l-1.75,0l0,-9.15l4.1,0a3.7,3.7 0 0 1 1.28,0.21a2.54,2.54 0 0 1 1.54,1.53a3.4,3.4 0 0 1 0.2,1.22a3,3 0 0 1 -0.52,1.77a2.67,2.67 0 0 1 -1.44,1l2,3.42l-2.07,0zm10.13,0l-6.74,0l0,-9.15l6.7,0l0,1.63l-5,0l0,2l4.23,0l0,1.63l-4.23,0l0,2.29l5,0l0.04,1.6zm9.37,0l-1.93,0l-1.41,-6.91l-1.43,6.91l-1.91,0l-2.51,-9.17l1.85,0l1.57,6.68l1.37,-6.68l2.12,0l1.36,6.68l1.59,-6.68l1.83,0l-2.5,9.17zm10.68,0l-2.09,0l-3.7,-6.5l0,6.5l-1.78,0l0,-9.15l2.1,0l3.73,6.53l0,-6.53l1.74,0l0,9.15zm7.43,0l-0.62,-1.83l-3.66,0l-0.62,1.83l-1.85,0l3.19,-9.17l2.21,0l3.2,9.17l-1.85,0zm1.47,-15.43a5.53,5.53 0 0 1 -1.09,1.88a4.73,4.73 0 0 1 -1.71,1.2a5.58,5.58 0 0 1 -2.23,0.43l-4.45,0l0,-12l4.45,0a5.7,5.7 0 0 1 2.24,0.41a4.83,4.83 0 0 1 1.71,1.19a5.58,5.58 0 0 1 1.08,1.9a8.38,8.38 0 0 1 0,5l0,-0.01z" class="cls-1"/>
  <path id="svg_16" fill="#bf793b" d="m15.26,62.45a2,2 0 0 0 -0.73,-0.7a2.37,2.37 0 0 0 -1.2,-0.27l-1.65,0l0,5.92l1.65,0a2.31,2.31 0 0 0 1.25,-0.31a2.26,2.26 0 0 0 0.72,-0.76a2.56,2.56 0 0 0 0.34,-1a6.51,6.51 0 0 0 0.08,-0.94a5.18,5.18 0 0 0 -0.1,-1a2.79,2.79 0 0 0 -0.36,-0.94z" class="cls-1"/>
 </g>
</svg>