<svg width="512" height="512" xmlns="http://www.w3.org/2000/svg" xml:space="preserve" version="1.1">

 <g>
  <title>Layer 1</title>
  <g id="svg_1">
   <path fill="#bf793b" id="svg_2" d="m437.02,74.98c-48.353,-48.352 -112.64,-74.98 -181.02,-74.98s-132.667,26.628 -181.02,74.98s-74.98,112.64 -74.98,181.02s26.628,132.667 74.98,181.02s112.64,74.98 181.02,74.98s132.667,-26.628 181.02,-74.98s74.98,-112.64 74.98,-181.02s-26.628,-132.667 -74.98,-181.02zm-11.314,350.726c-45.33,45.33 -105.6,70.294 -169.706,70.294s-124.376,-24.964 -169.706,-70.294c-45.33,-45.33 -70.294,-105.6 -70.294,-169.706s24.964,-124.376 70.294,-169.706c45.33,-45.33 105.6,-70.294 169.706,-70.294s124.376,24.964 169.706,70.294c45.33,45.33 70.294,105.6 70.294,169.706s-24.964,124.376 -70.294,169.706z"/>
   <path fill="#bf793b" id="svg_3" d="m48,256c0,-114.691 93.309,-208 208,-208c41.368,0 81.326,12.111 115.555,35.024c3.671,2.458 8.64,1.474 11.098,-2.198c2.458,-3.671 1.474,-8.64 -2.198,-11.098c-36.871,-24.682 -79.907,-37.728 -124.455,-37.728c-59.833,0 -116.084,23.3 -158.392,65.608c-42.308,42.308 -65.608,98.559 -65.608,158.392c0,55.2 20.254,108.232 57.032,149.328c1.58,1.766 3.768,2.665 5.964,2.665c1.899,0 3.806,-0.672 5.332,-2.039c3.292,-2.947 3.573,-8.004 0.626,-11.296c-34.147,-38.158 -52.954,-87.401 -52.954,-138.658z"/>
   <path fill="#bf793b" id="svg_4" d="m442.273,131.547c-2.458,-3.672 -7.427,-4.656 -11.098,-2.198c-3.671,2.458 -4.656,7.427 -2.198,11.098c22.912,34.228 35.023,74.186 35.023,115.553c0,114.691 -93.309,208 -208,208c-47.583,0 -94.096,-16.479 -130.969,-46.401c-3.431,-2.784 -8.469,-2.26 -11.253,1.171s-2.26,8.469 1.171,11.253c39.715,32.228 89.808,49.977 141.051,49.977c59.833,0 116.084,-23.3 158.392,-65.608c42.308,-42.308 65.608,-98.559 65.608,-158.392c0,-44.547 -13.046,-87.583 -37.727,-124.453z"/>
   <path fill="#bf793b" id="svg_5" d="m394.658,100.955c5.379,4.813 10.565,9.964 15.414,15.308c1.579,1.74 3.749,2.624 5.927,2.624c1.917,0 3.842,-0.686 5.374,-2.076c3.271,-2.969 3.517,-8.029 0.548,-11.301c-5.22,-5.752 -10.803,-11.296 -16.593,-16.478c-3.292,-2.946 -8.35,-2.666 -11.296,0.626s-2.667,8.35 0.626,11.297z"/>
   <path fill="#bf793b" id="svg_6" d="m256,104c4.418,0 8,-3.582 8,-8l0,-24c0,-4.418 -3.582,-8 -8,-8s-8,3.582 -8,8l0,24c0,4.418 3.582,8 8,8z"/>
   <path fill="#bf793b" id="svg_7" d="m248,416l0,24c0,4.418 3.582,8 8,8s8,-3.582 8,-8l0,-24c0,-4.418 -3.582,-8 -8,-8s-8,3.582 -8,8z"/>
   <path fill="#bf793b" id="svg_8" d="m104,256c0,-4.418 -3.582,-8 -8,-8l-24,0c-4.418,0 -8,3.582 -8,8s3.582,8 8,8l24,0c4.418,0 8,-3.582 8,-8z"/>
   <path fill="#bf793b" id="svg_9" d="m408,256c0,4.418 3.582,8 8,8l24,0c4.418,0 8,-3.582 8,-8s-3.582,-8 -8,-8l-24,0c-4.418,0 -8,3.582 -8,8z"/>
   <path fill="#bf793b" id="svg_10" d="m182.928,113.436l-12,-20.785c-2.209,-3.827 -7.102,-5.136 -10.928,-2.928c-3.826,2.209 -5.137,7.102 -2.928,10.928l12,20.785c1.482,2.566 4.171,4.001 6.936,4.001c1.357,0 2.733,-0.346 3.993,-1.073c3.825,-2.209 5.136,-7.102 2.927,-10.928z"/>
   <path fill="#bf793b" id="svg_11" d="m342.928,390.564c-2.209,-3.826 -7.103,-5.135 -10.928,-2.928c-3.826,2.209 -5.137,7.102 -2.928,10.928l12,20.785c1.482,2.566 4.171,4.001 6.936,4.001c1.357,0 2.733,-0.346 3.993,-1.073c3.826,-2.209 5.137,-7.102 2.928,-10.928l-12.001,-20.785z"/>
   <path fill="#bf793b" id="svg_12" d="m96.659,356.001c1.357,0 2.733,-0.346 3.993,-1.073l20.785,-12c3.826,-2.209 5.137,-7.102 2.928,-10.928c-2.209,-3.826 -7.103,-5.135 -10.928,-2.928l-20.785,12c-3.826,2.209 -5.137,7.102 -2.928,10.928c1.481,2.566 4.17,4.001 6.935,4.001z"/>
   <path fill="#bf793b" id="svg_13" d="m394.571,184.001c1.357,0 2.733,-0.346 3.993,-1.073l20.785,-12c3.826,-2.209 5.137,-7.102 2.928,-10.928s-7.102,-5.135 -10.928,-2.928l-20.785,12c-3.826,2.209 -5.137,7.102 -2.928,10.928c1.482,2.566 4.171,4.001 6.935,4.001z"/>
   <path fill="#bf793b" id="svg_14" d="m352,89.723c-3.826,-2.21 -8.719,-0.899 -10.928,2.928l-12,20.785c-2.209,3.826 -0.898,8.719 2.928,10.928c1.26,0.728 2.635,1.073 3.993,1.073c2.765,0 5.454,-1.435 6.936,-4.001l12,-20.785c2.208,-3.826 0.897,-8.719 -2.929,-10.928z"/>
   <path fill="#bf793b" id="svg_15" d="m180,387.636c-3.826,-2.209 -8.719,-0.898 -10.928,2.928l-12,20.785c-2.209,3.826 -0.898,8.719 2.928,10.928c1.26,0.728 2.635,1.073 3.993,1.073c2.765,0 5.454,-1.435 6.936,-4.001l12,-20.785c2.208,-3.826 0.897,-8.719 -2.929,-10.928z"/>
   <path fill="#bf793b" id="svg_16" d="m390.564,342.928l20.785,12c1.26,0.728 2.635,1.073 3.993,1.073c2.765,0 5.454,-1.435 6.936,-4.001c2.209,-3.826 0.898,-8.719 -2.928,-10.928l-20.785,-12c-3.826,-2.21 -8.719,-0.898 -10.928,2.928c-2.21,3.826 -0.899,8.719 2.927,10.928z"/>
   <path fill="#bf793b" id="svg_17" d="m121.436,169.072l-20.785,-12c-3.826,-2.21 -8.719,-0.898 -10.928,2.928c-2.209,3.826 -0.898,8.719 2.928,10.928l20.785,12c1.26,0.728 2.635,1.073 3.993,1.073c2.765,0 5.454,-1.435 6.936,-4.001c2.208,-3.826 0.897,-8.719 -2.929,-10.928z"/>
   <path fill="#bf793b" id="svg_18" d="m311.692,360.451c1.357,0 2.733,-0.346 3.993,-1.073c3.826,-2.209 5.137,-7.102 2.928,-10.928l-44.38,-76.869c3.591,-4.197 5.767,-9.638 5.767,-15.581c0,-10.429 -6.689,-19.322 -16,-22.624l0,-105.376c0,-4.418 -3.582,-8 -8,-8s-8,3.582 -8,8l0,105.376c-9.311,3.302 -16,12.195 -16,22.624c0,13.234 10.766,24 24,24c1.497,0 2.961,-0.145 4.383,-0.408l44.374,76.858c1.482,2.566 4.171,4.001 6.935,4.001zm-63.692,-104.451c0,-4.411 3.589,-8 8,-8s8,3.589 8,8s-3.589,8 -8,8s-8,-3.589 -8,-8z"/>
  </g>
  <g id="svg_19"/>
  <g id="svg_20"/>
  <g id="svg_21"/>
  <g id="svg_22"/>
  <g id="svg_23"/>
  <g id="svg_24"/>
  <g id="svg_25"/>
  <g id="svg_26"/>
  <g id="svg_27"/>
  <g id="svg_28"/>
  <g id="svg_29"/>
  <g id="svg_30"/>
  <g id="svg_31"/>
  <g id="svg_32"/>
  <g id="svg_33"/>
 </g>
</svg>