<svg width="512" height="512" xmlns="http://www.w3.org/2000/svg">

 <g>
  <title>Layer 1</title>
  <g id="svg_1" fill-rule="evenodd">
   <path fill="#bf793b" id="svg_2" d="m480.42578,216.16016c-2.35156,-1.89844 -5.43359,-2.63282 -8.38281,-2l-152.61719,32.65234l-17.11719,-3.66016l45.16407,-90.46484c0.07422,-0.14844 0.14453,-0.29687 0.21093,-0.44531c6.0625,-13.80078 9.13672,-28.48438 9.13672,-43.64844c0,-59.87891 -48.71094,-108.59375 -108.58984,-108.59375c-59.87891,0 -108.59375,48.71484 -108.59375,108.59375c0,15.16406 3.07422,29.84766 9.14062,43.64844c0.06641,0.14844 0.13282,0.29687 0.20703,0.44531l32.23438,64.55469l-14.41406,-3.08203c-0.13282,-0.03125 -0.26953,-0.04297 -0.40625,-0.0625c-0.19532,-0.03516 -0.38672,-0.07032 -0.58203,-0.09375c-0.17969,-0.01953 -0.35547,-0.02344 -0.53125,-0.03516c-0.19532,-0.01172 -0.38672,-0.02734 -0.57813,-0.02734c-0.18359,0 -0.36328,0.01562 -0.54687,0.02343c-0.1875,0.01172 -0.375,0.01954 -0.5586,0.03907c-0.1914,0.02343 -0.3789,0.05859 -0.5664,0.08984c-0.14063,0.02344 -0.27735,0.03516 -0.41797,0.0625l-154.71094,33.10547c-4.60938,0.98437 -7.90625,5.0625 -7.90625,9.77734l0,82.48047c0,5.52344 4.47656,10 10,10s10,-4.47656 10,-10l0,-74.39453l134.71094,-28.82031l0,224.50781l-134.71094,28.82031l0,-70.11328c0,-5.52344 -4.47656,-10 -10,-10s-10,4.47656 -10,10l0,82.48047c0,3.01953 1.36328,5.87891 3.71094,7.77344c1.79687,1.45312 4.01953,2.22656 6.28906,2.22656c0.69531,0 1.39844,-0.07422 2.09375,-0.22266l152.61719,-32.65234l152.62109,32.65234c0.05469,0.01172 0.10938,0.01953 0.16406,0.02735c0.22266,0.04297 0.44532,0.07812 0.66797,0.10547c0.10156,0.01172 0.19922,0.02734 0.30078,0.03906c0.31641,0.03125 0.63672,0.05078 0.96094,0.05078c0.32031,0 0.64063,-0.01953 0.95703,-0.05078c0.10156,-0.01172 0.20313,-0.02735 0.30078,-0.03906c0.22266,-0.02735 0.44532,-0.0625 0.66407,-0.10547c0.05468,-0.01172 0.11328,-0.01563 0.16796,-0.02735l154.71094,-33.10156c4.61328,-0.98828 7.91016,-5.0625 7.91016,-9.77734l0,-82.48047c0,-5.52344 -4.47656,-10 -10,-10c-5.52344,0 -10,4.47656 -10,10l0,74.39062l-134.71094,28.82422l0,-224.50781l134.71094,-28.82031l0,70.11328c0,5.52344 4.47656,10 10,10c5.52344,0 10,-4.47656 10,-10l0,-82.48047c0,-3.01953 -1.36328,-5.875 -3.71094,-7.77734zm-320.78906,-107.56641c0,-48.85156 39.74219,-88.59375 88.59375,-88.59375c48.85156,0 88.59375,39.74219 88.59375,88.59375c0,12.29688 -2.47656,24.19922 -7.35547,35.38281l-81.23828,162.71485l-81.23828,-162.71485c-4.88282,-11.18359 -7.35547,-23.08593 -7.35547,-35.38281zm15.07422,127.71094l17.9375,3.83594l46.63672,93.40234c1.6914,3.39062 5.15625,5.53515 8.94531,5.53515c3.78906,0 7.2539,-2.14453 8.94922,-5.53515l35.90234,-71.91406l16.34375,3.49609l0,224.50781l-134.71094,-28.82422l0,-224.5039l-0.0039,0zm0,0"/>
   <path fill="#bf793b" id="svg_3" d="m312.53125,108.59375c0,-35.45703 -28.84375,-64.30469 -64.30078,-64.30469s-64.30469,28.84766 -64.30469,64.30469s28.84766,64.30078 64.30469,64.30078s64.30078,-28.84375 64.30078,-64.30078zm-108.60547,0c0,-24.42969 19.875,-44.30469 44.30469,-44.30469c24.42969,0 44.30469,19.875 44.30469,44.30469c0,24.42578 -19.875,44.30078 -44.30469,44.30078c-24.42969,0 -44.30469,-19.875 -44.30469,-44.30078zm0,0"/>
   <path fill="#bf793b" id="svg_4" d="m10,389.51953c5.50781,0 10,-4.49219 10,-10c0,-5.50781 -4.49219,-10 -10,-10s-10,4.49219 -10,10c0,5.50781 4.49219,10 10,10zm0,0"/>
   <path fill="#bf793b" id="svg_5" d="m474.13672,336.41797c-5.50781,0 -10,4.49219 -10,10c0,5.50781 4.49219,10 10,10c5.50781,0 10,-4.49219 10,-10c0,-5.50781 -4.49219,-10 -10,-10zm0,0"/>
  </g>
  <path id="svg_6" d="m683,482" opacity="NaN" fill="#bf793b"/>
 </g>
</svg>