<svg width="512.001" height="512.001" xmlns="http://www.w3.org/2000/svg" xml:space="preserve" version="1.1">

 <g>
  <title>Layer 1</title>
  <g id="svg_1">
   <g id="svg_2">
    <path fill="#bf793b" id="svg_3" d="m485.699,428.109l-117.719,-117.717c-2.619,-2.618 -6.452,-3.612 -10.012,-2.594l-17.532,5.009c-1.016,0.291 -1.98,0.736 -2.859,1.323l-18.031,12.032l-26.585,17.74c-52.186,-34.814 -97.217,-80.84 -130.893,-133.77l19.307,-19.307c0.002,-0.002 0.003,-0.003 0.005,-0.005l15.032,-15.032c1.226,-1.226 2.118,-2.743 2.594,-4.409l5.009,-17.532c1.018,-3.561 0.024,-7.393 -2.594,-10.012l-117.716,-117.719c-2.828,-2.827 -7.044,-3.741 -10.792,-2.337l-20.038,7.514c-1.362,0.511 -2.6,1.308 -3.63,2.337c-4.398,4.398 -8.629,9.133 -12.573,14.072c-0.002,0.002 -0.004,0.004 -0.005,0.006c-53.335,66.77 -47.927,162.75 12.579,223.256l191.604,191.604c32.642,32.642 75.599,49.249 118.734,49.245c36.82,-0.002 73.773,-12.106 104.522,-36.667c4.944,-3.949 9.68,-8.181 14.078,-12.578c1.029,-1.03 1.826,-2.268 2.337,-3.63l7.514,-20.036c1.405,-3.745 0.491,-7.965 -2.336,-10.793zm-423.556,-378.51l11.784,-4.418l108.832,108.833l-2.635,9.222l-5.952,5.952l-57.557,-57.557l-58.126,-58.126c1.199,-1.329 2.419,-2.632 3.654,-3.906zm193.129,398.548l-191.605,-191.604c-50.424,-50.424 -57.29,-128.892 -17.867,-186.885l113.951,113.951l-17.832,17.832c-3.33,3.33 -3.946,8.509 -1.49,12.528c36.842,60.287 87.69,112.408 147.05,150.728c3.413,2.204 7.811,2.17 11.191,-0.085l25.241,-16.844l118.246,118.246c-57.993,39.424 -136.46,32.557 -186.885,-17.867zm206.944,1.525c-1.273,1.235 -2.577,2.453 -3.906,3.654l-117.101,-117.102l6.363,-4.245l10.229,-2.924l108.833,108.833l-4.418,11.784z"/>
   </g>
  </g>
  <g id="svg_4">
   <g id="svg_5">
    <path fill="#bf793b" id="svg_6" d="m274.797,426.202l-72.368,-72.368c-3.982,-3.982 -10.439,-3.981 -14.422,0c-3.982,3.982 -3.982,10.439 0,14.422l72.369,72.368c1.99,1.992 4.601,2.987 7.21,2.987s5.22,-0.996 7.211,-2.987c3.982,-3.982 3.982,-10.439 0,-14.422z"/>
   </g>
  </g>
  <g id="svg_7">
   <g id="svg_8">
    <path fill="#bf793b" id="svg_9" d="m175.231,326.639l-4.856,-4.857c-3.982,-3.982 -10.439,-3.982 -14.422,0c-3.982,3.982 -3.982,10.439 0,14.422l4.857,4.857c1.992,1.992 4.601,2.987 7.21,2.987c2.609,0 5.22,-0.995 7.211,-2.987c3.982,-3.982 3.982,-10.439 0,-14.422z"/>
   </g>
  </g>
  <g id="svg_10">
   <g id="svg_11">
    <path fill="#bf793b" id="svg_12" d="m244.392,130.35c-5.632,0 -10.197,4.565 -10.197,10.197c0,5.632 4.565,10.197 10.197,10.197c64.542,0 117.052,52.51 117.052,117.052c0,5.632 4.565,10.197 10.197,10.197s10.197,-4.565 10.197,-10.197c0,-75.787 -61.657,-137.446 -137.446,-137.446z"/>
   </g>
  </g>
  <g id="svg_13">
   <g id="svg_14">
    <path fill="#bf793b" id="svg_15" d="m244.392,66.24c-5.632,0 -10.197,4.565 -10.197,10.197c0,5.632 4.565,10.197 10.197,10.197c99.893,0 181.162,81.269 181.162,181.162c0,5.632 4.565,10.197 10.197,10.197c5.632,0 10.197,-4.565 10.197,-10.197c0,-111.138 -90.418,-201.556 -201.556,-201.556z"/>
   </g>
  </g>
  <g id="svg_16">
   <g id="svg_17">
    <path fill="#bf793b" id="svg_18" d="m433.62,78.568c-50.545,-50.544 -117.748,-78.381 -189.228,-78.381c-5.632,0 -10.197,4.565 -10.197,10.197c0,5.632 4.565,10.197 10.197,10.197c136.315,0 247.215,110.9 247.215,247.215c0,5.632 4.565,10.197 10.197,10.197c5.632,0 10.197,-4.565 10.197,-10.197c0,-71.48 -27.837,-138.683 -78.381,-189.228z"/>
   </g>
  </g>
  <g id="svg_19"/>
  <g id="svg_20"/>
  <g id="svg_21"/>
  <g id="svg_22"/>
  <g id="svg_23"/>
  <g id="svg_24"/>
  <g id="svg_25"/>
  <g id="svg_26"/>
  <g id="svg_27"/>
  <g id="svg_28"/>
  <g id="svg_29"/>
  <g id="svg_30"/>
  <g id="svg_31"/>
  <g id="svg_32"/>
  <g id="svg_33"/>
 </g>
</svg>